# xmcd
#
# Track frame offsets: 
#        150
#        11619
#        24922
#        37335
#        48379
#        61000
#        71061
#        83449
#        97234
#        107869
#        119238
#        133354
#        144538
#        157989
#        170995
#        181215
#
# Disc length: 2564 seconds
#
# Revision: 1
# Processed by: cddbd v1.5.2PL0 Copyright (c) Steve Scherf et al.
# Submitted via: ExactAudioCopy v1.0b3
#
DISCID=e90a0210
DTITLE=Perkins, Carl - Tennessee
DYEAR=2004
DGENRE=Rockabilly
TTITLE0=Sure To Fall
TTITLE1=Turn Around
TTITLE2=Your True Love
TTITLE3=I'm Sorry, I'm Not Sorry
TTITLE4=Honey Don't
TTITLE5=Everybody's Trying To Be My Baby
TTITLE6=Her Love Rubbed Off
TTITLE7=Tennessee
TTITLE8=Standing In The Need Of Love
TTITLE9=I Want You Back
TTITLE10=Redneck
TTITLE11=That's Right
TTITLE12=Country Soul
TTITLE13=Hallelujah Special
TTITLE14=Daddy Sang Bass
TTITLE15=Dixie Fried
EXTD=
EXTT0=
EXTT1=
EXTT2=
EXTT3=
EXTT4=
EXTT5=
EXTT6=
EXTT7=
EXTT8=
EXTT9=
EXTT10=
EXTT11=
EXTT12=
EXTT13=
EXTT14=
EXTT15=
PLAYORDER=
